<svg width="240" height="140" viewBox="0 0 240 140" fill="none" xmlns="http://www.w3.org/2000/svg">
  <defs>
    <linearGradient id="sunGradient" x1="50" y1="10" x2="170" y2="120" gradientUnits="userSpaceOnUse">
      <stop offset="0" stop-color="#FF8A00" />
      <stop offset="1" stop-color="#FF4F24" />
    </linearGradient>
    <linearGradient id="waveGradient" x1="40" y1="120" x2="190" y2="120" gradientUnits="userSpaceOnUse">
      <stop offset="0" stop-color="#0AA0FF" />
      <stop offset="1" stop-color="#0057FF" />
    </linearGradient>
  </defs>
  <circle cx="120" cy="70" r="62" fill="url(#sunGradient)" />
  <path
    d="M54 114C86 96 106 100 140 112C159 119 175 120 189 116C172 133 145 140 118 140C93 140 70 132 54 114Z"
    fill="url(#waveGradient)"
  />
  <path
    d="M118 42C111 46 108 55 108 55C108 55 99 47 90 45C92 53 99 60 99 60C99 60 90 61 84 66C97 71 108 67 108 67C108 67 108 75 112 83C120 74 120 59 120 59C120 59 130 64 139 64C135 57 126 51 126 51C126 51 135 49 142 44C131 40 123 41 118 42Z"
    fill="white"
  />
  <path
    d="M142 38C146 36 150 35 156 35C153 39 150 41 150 41C150 41 158 42 165 46C160 47 154 47 154 47C154 47 158 53 158 57C152 54 147 50 147 50C147 50 145 56 144 59C141 54 141 49 141 49C141 49 134 50 128 53C131 46 136 41 142 38Z"
    fill="white"
    opacity="0.75"
  />
  <path
    d="M178 46L205 54L195 59L201 70L183 63L175 77L172 63L154 57L168 52L166 39L178 46Z"
    fill="#0D73FF"
  />
  <text
    x="42"
    y="136"
    font-family="'Poppins', 'Segoe UI', sans-serif"
    font-size="34"
    font-weight="700"
    fill="#FF6A1A"
    letter-spacing="0.08em"
  >
    AGS HOLIDAYS
  </text>
</svg>

